# xmcd
# Copyright (C) 1995-1998 Ti Kan
#
# Track frame offsets:
#       150
#       13395
#       34475
#       48652
#       57475
#       75687
#       90275
#       103602
#       123987
#       136282
#       153465
#       163607
#       188712
#       217337
#       234762
#       263412
#
# Disc length: 3722 seconds
#
# Revision: 2
# Processed by: cddbd v1.4PL0 Copyright (c) Steve Scherf et al.
# Submitted via: CD-Transfer v1.0
#
DISCID=d80e8810
DTITLE=Lucky Hiob - ... Und Sie Dreht Sich Doch!
DYEAR=1997
DGENRE=
TTITLE0=Zwei Wie Mir
TTITLE1=Christoph
TTITLE2=Verby
TTITLE3=Madonna
TTITLE4=Summer
TTITLE5=Chrüeg Und So
TTITLE6=Ja Guut
TTITLE7=Schlafe
TTITLE8=Hey, Maitli
TTITLE9=Erbse
TTITLE10=Nöd Vo Dir
TTITLE11=Saloniki
TTITLE12=156
TTITLE13=Be
TTITLE14=Die Lösung
TTITLE15=S Letschti Lied
EXTD=
EXTT0=
EXTT1=
EXTT2=
EXTT3=
EXTT4=
EXTT5=
EXTT6=
EXTT7=
EXTT8=
EXTT9=
EXTT10=
EXTT11=
EXTT12=
EXTT13=
EXTT14=
EXTT15=
PLAYORDER=
